<mxfile host="app.diagrams.net" modified="2023-11-17T07:12:34.876Z" agent="Mozilla/5.0 (Macintosh; Intel Mac OS X 10_15_7) AppleWebKit/537.36 (KHTML, like Gecko) Chrome/119.0.0.0 Safari/537.36" etag="Iina0cJSpGeoQmidELnC" version="22.1.2" type="google">
  <diagram name="Page-1" id="90a13364-a465-7bf4-72fc-28e22215d7a0">
    <mxGraphModel grid="1" page="1" gridSize="10" guides="1" tooltips="1" connect="0" arrows="1" fold="1" pageScale="1.5" pageWidth="1169" pageHeight="826" background="none" math="0" shadow="0">
      <root>
        <mxCell id="0" style=";html=1;" />
        <mxCell id="1" style=";html=1;" parent="0" />
        <mxCell id="3a17f1ce550125da-2" value="Pre-Processing" style="html=1;shadow=1;fillColor=#F2CC8F;strokeColor=#E07A5F;sketch=1;curveFitting=1;jiggle=2;flipH=1;fontFamily=Verdana;fontSize=22;labelBackgroundColor=none;labelBorderColor=none;whiteSpace=wrap;verticalAlign=middle;align=center;" vertex="1" parent="1">
          <mxGeometry x="220" y="207.88" width="170" height="280" as="geometry" />
        </mxCell>
        <mxCell id="3a17f1ce550125da-20" value="" style="edgeStyle=elbowEdgeStyle;rounded=0;html=1;startArrow=none;startFill=0;jettySize=auto;orthogonalLoop=1;elbow=vertical;noEdgeStyle=1;orthogonal=1;strokeColor=#E07A5F;sketch=1;curveFitting=1;jiggle=2;fontFamily=Verdana;fontSize=22;labelBackgroundColor=none;labelBorderColor=none;verticalAlign=middle;align=center;" edge="1" parent="1" source="3a17f1ce550125da-8" target="3a17f1ce550125da-2">
          <mxGeometry relative="1" as="geometry" />
        </mxCell>
        <mxCell id="3a17f1ce550125da-8" value="Raw Data" style="html=1;shadow=1;fillColor=#F2CC8F;strokeColor=#E07A5F;sketch=1;curveFitting=1;jiggle=2;flipH=1;fontFamily=Verdana;fontSize=22;labelBackgroundColor=none;labelBorderColor=none;whiteSpace=wrap;verticalAlign=middle;align=center;" vertex="1" parent="1">
          <mxGeometry y="272.88" width="120" height="150" as="geometry" />
        </mxCell>
        <mxCell id="quHLsW-z8Z7xskG_GIhH-3" value="" style="edgeStyle=orthogonalEdgeStyle;rounded=0;orthogonalLoop=1;jettySize=auto;html=1;labelBackgroundColor=none;fontSize=22;fontFamily=Verdana;strokeColor=#E07A5F;sketch=1;curveFitting=1;jiggle=2;labelBorderColor=none;" edge="1" parent="1" source="DdKTCpdjgui7AcP8N71k-1" target="MQLqIH8n6D9SwZsYi_pO-5">
          <mxGeometry relative="1" as="geometry" />
        </mxCell>
        <mxCell id="DdKTCpdjgui7AcP8N71k-1" value="Processed Data" style="html=1;shadow=1;fillColor=#F2CC8F;strokeColor=#E07A5F;sketch=1;curveFitting=1;jiggle=2;flipH=1;fontFamily=Verdana;fontSize=22;labelBackgroundColor=none;labelBorderColor=none;whiteSpace=wrap;verticalAlign=middle;align=center;" vertex="1" parent="1">
          <mxGeometry x="500" y="270.96" width="130" height="150" as="geometry" />
        </mxCell>
        <mxCell id="quHLsW-z8Z7xskG_GIhH-2" value="" style="edgeStyle=orthogonalEdgeStyle;rounded=0;orthogonalLoop=1;jettySize=auto;html=1;labelBackgroundColor=none;fontSize=22;fontFamily=Verdana;strokeColor=#E07A5F;sketch=1;curveFitting=1;jiggle=2;labelBorderColor=none;" edge="1" parent="1" source="DdKTCpdjgui7AcP8N71k-3" target="MQLqIH8n6D9SwZsYi_pO-1">
          <mxGeometry relative="1" as="geometry" />
        </mxCell>
        <mxCell id="DdKTCpdjgui7AcP8N71k-3" value="Time Series Decompostion Using MSTL" style="html=1;shadow=1;fillColor=#F2CC8F;strokeColor=#E07A5F;sketch=1;curveFitting=1;jiggle=2;flipH=1;fontFamily=Verdana;fontSize=22;labelBackgroundColor=none;labelBorderColor=none;whiteSpace=wrap;verticalAlign=middle;align=center;" vertex="1" parent="1">
          <mxGeometry x="730" width="208.5" height="150" as="geometry" />
        </mxCell>
        <mxCell id="DdKTCpdjgui7AcP8N71k-4" value="" style="endArrow=classic;html=1;rounded=0;exitX=1;exitY=0.5;exitDx=0;exitDy=0;entryX=1.01;entryY=0.495;entryDx=0;entryDy=0;noEdgeStyle=1;orthogonal=1;strokeColor=#E07A5F;sketch=1;curveFitting=1;jiggle=2;fontFamily=Verdana;fontSize=22;labelBackgroundColor=none;labelBorderColor=none;entryPerimeter=0;verticalAlign=middle;align=center;" edge="1" parent="1" source="3a17f1ce550125da-2" target="DdKTCpdjgui7AcP8N71k-1">
          <mxGeometry width="50" height="50" relative="1" as="geometry">
            <mxPoint x="-178" y="360" as="sourcePoint" />
            <mxPoint x="-228" y="310" as="targetPoint" />
          </mxGeometry>
        </mxCell>
        <mxCell id="DdKTCpdjgui7AcP8N71k-5" value="" style="endArrow=classic;html=1;rounded=0;exitX=1;exitY=0.5;exitDx=0;exitDy=0;noEdgeStyle=1;orthogonal=1;strokeColor=#E07A5F;sketch=1;curveFitting=1;jiggle=2;fontFamily=Verdana;fontSize=22;labelBackgroundColor=none;labelBorderColor=none;verticalAlign=middle;align=center;" edge="1" parent="1" source="DdKTCpdjgui7AcP8N71k-1" target="DdKTCpdjgui7AcP8N71k-3">
          <mxGeometry width="50" height="50" relative="1" as="geometry">
            <mxPoint x="45" y="140" as="sourcePoint" />
            <mxPoint x="-5" y="90" as="targetPoint" />
          </mxGeometry>
        </mxCell>
        <mxCell id="MQLqIH8n6D9SwZsYi_pO-1" value="EDA" style="html=1;shadow=1;fillColor=#F2CC8F;strokeColor=#E07A5F;sketch=1;curveFitting=1;jiggle=2;flipH=1;fontFamily=Verdana;fontSize=22;labelBackgroundColor=none;labelBorderColor=none;whiteSpace=wrap;verticalAlign=middle;align=center;" vertex="1" parent="1">
          <mxGeometry x="1081.75" width="110" height="150" as="geometry" />
        </mxCell>
        <mxCell id="MQLqIH8n6D9SwZsYi_pO-4" value="LSTM" style="html=1;shadow=1;fillColor=#F2CC8F;strokeColor=#E07A5F;sketch=1;curveFitting=1;jiggle=2;flipH=1;fontFamily=Verdana;fontSize=22;labelBackgroundColor=none;labelBorderColor=none;whiteSpace=wrap;verticalAlign=middle;align=center;" vertex="1" parent="1">
          <mxGeometry x="1081.75" y="180" width="120" height="150" as="geometry" />
        </mxCell>
        <mxCell id="MQLqIH8n6D9SwZsYi_pO-5" value="Tensor Batch&#xa;Transformation" style="html=1;shadow=1;fillColor=#F2CC8F;strokeColor=#E07A5F;sketch=1;curveFitting=1;jiggle=2;flipH=1;fontFamily=Verdana;fontSize=22;labelBackgroundColor=none;labelBorderColor=none;whiteSpace=wrap;verticalAlign=middle;align=center;" vertex="1" parent="1">
          <mxGeometry x="730" y="270.96" width="208.5" height="150" as="geometry" />
        </mxCell>
        <mxCell id="MQLqIH8n6D9SwZsYi_pO-7" value="" style="endArrow=classic;html=1;rounded=0;exitX=-0.06;exitY=0.788;exitDx=0;exitDy=0;exitPerimeter=0;noEdgeStyle=1;orthogonal=1;strokeColor=#E07A5F;sketch=1;curveFitting=1;jiggle=2;fontFamily=Verdana;fontSize=22;labelBackgroundColor=none;labelBorderColor=none;verticalAlign=middle;align=center;entryX=1.049;entryY=0.579;entryDx=0;entryDy=0;entryPerimeter=0;" edge="1" parent="1" target="MQLqIH8n6D9SwZsYi_pO-4">
          <mxGeometry width="50" height="50" relative="1" as="geometry">
            <mxPoint x="938.5000000000002" y="349.9999999999999" as="sourcePoint" />
            <mxPoint x="1050" y="273" as="targetPoint" />
          </mxGeometry>
        </mxCell>
        <mxCell id="MQLqIH8n6D9SwZsYi_pO-8" value="TimeSeriesDataset&#xa;Transformation" style="html=1;shadow=1;fillColor=#F2CC8F;strokeColor=#E07A5F;sketch=1;curveFitting=1;jiggle=2;flipH=1;fontFamily=Verdana;fontSize=22;labelBackgroundColor=none;labelBorderColor=none;whiteSpace=wrap;verticalAlign=middle;align=center;" vertex="1" parent="1">
          <mxGeometry x="728.5" y="520" width="210" height="190" as="geometry" />
        </mxCell>
        <mxCell id="MQLqIH8n6D9SwZsYi_pO-10" value="" style="endArrow=classic;html=1;rounded=0;exitX=-0.019;exitY=0.419;exitDx=0;exitDy=0;entryX=1.017;entryY=0.458;entryDx=0;entryDy=0;noEdgeStyle=1;orthogonal=1;strokeColor=#E07A5F;sketch=1;curveFitting=1;jiggle=2;fontFamily=Verdana;fontSize=22;labelBackgroundColor=none;labelBorderColor=none;verticalAlign=middle;align=center;exitPerimeter=0;entryPerimeter=0;" edge="1" parent="1" source="MQLqIH8n6D9SwZsYi_pO-8" target="MQLqIH8n6D9SwZsYi_pO-11">
          <mxGeometry width="50" height="50" relative="1" as="geometry">
            <mxPoint x="940" y="680" as="sourcePoint" />
            <mxPoint x="1070" y="679.9966666666667" as="targetPoint" />
          </mxGeometry>
        </mxCell>
        <mxCell id="MQLqIH8n6D9SwZsYi_pO-11" value="Temporal Fusion Transformer" style="html=1;shadow=1;fillColor=#F2CC8F;strokeColor=#E07A5F;sketch=1;curveFitting=1;jiggle=2;flipH=1;fontFamily=Verdana;fontSize=22;labelBackgroundColor=none;labelBorderColor=none;whiteSpace=wrap;verticalAlign=middle;align=center;" vertex="1" parent="1">
          <mxGeometry x="1030" y="529.9966666666667" width="185.5" height="150" as="geometry" />
        </mxCell>
        <mxCell id="MQLqIH8n6D9SwZsYi_pO-12" value="Model Diagonistics" style="html=1;shadow=1;fillColor=#F2CC8F;strokeColor=#E07A5F;sketch=1;curveFitting=1;jiggle=2;flipH=1;fontFamily=Verdana;fontSize=22;labelBackgroundColor=none;labelBorderColor=none;whiteSpace=wrap;verticalAlign=middle;align=center;" vertex="1" parent="1">
          <mxGeometry x="1346.5" y="-90" width="188.5" height="150" as="geometry" />
        </mxCell>
        <mxCell id="MQLqIH8n6D9SwZsYi_pO-13" value="Hyper Parameter optimization" style="html=1;shadow=1;fillColor=#F2CC8F;strokeColor=#E07A5F;sketch=1;curveFitting=1;jiggle=2;flipH=1;fontFamily=Verdana;fontSize=22;labelBackgroundColor=none;labelBorderColor=none;whiteSpace=wrap;verticalAlign=middle;align=center;" vertex="1" parent="1">
          <mxGeometry x="1356.5" y="220" width="218.5" height="150" as="geometry" />
        </mxCell>
        <mxCell id="MQLqIH8n6D9SwZsYi_pO-15" value="Hyperparameter Tuning" style="html=1;shadow=1;fillColor=#F2CC8F;strokeColor=#E07A5F;sketch=1;curveFitting=1;jiggle=2;flipH=1;fontFamily=Verdana;fontSize=22;labelBackgroundColor=none;labelBorderColor=none;whiteSpace=wrap;verticalAlign=middle;align=center;" vertex="1" parent="1">
          <mxGeometry x="1346.5" y="770" width="211.5" height="110" as="geometry" />
        </mxCell>
        <mxCell id="MQLqIH8n6D9SwZsYi_pO-17" value="EarlyStopping&amp;nbsp;" style="html=1;shadow=1;fillColor=#F2CC8F;strokeColor=#E07A5F;sketch=1;curveFitting=1;jiggle=2;flipH=1;fontFamily=Verdana;fontSize=22;labelBackgroundColor=none;labelBorderColor=none;whiteSpace=wrap;verticalAlign=middle;align=center;" vertex="1" parent="1">
          <mxGeometry x="1366.5" y="450" width="208.5" height="150" as="geometry" />
        </mxCell>
        <mxCell id="MQLqIH8n6D9SwZsYi_pO-18" value="" style="endArrow=classic;html=1;rounded=0;exitX=1;exitY=0.75;exitDx=0;exitDy=0;noEdgeStyle=1;orthogonal=1;strokeColor=#E07A5F;sketch=1;curveFitting=1;jiggle=2;fontFamily=Verdana;fontSize=22;labelBackgroundColor=none;labelBorderColor=none;verticalAlign=middle;align=center;entryX=1.001;entryY=0.482;entryDx=0;entryDy=0;entryPerimeter=0;" edge="1" parent="1" source="MQLqIH8n6D9SwZsYi_pO-4" target="MQLqIH8n6D9SwZsYi_pO-13">
          <mxGeometry width="50" height="50" relative="1" as="geometry">
            <mxPoint x="777" y="551" as="sourcePoint" />
            <mxPoint x="641" y="438" as="targetPoint" />
          </mxGeometry>
        </mxCell>
        <mxCell id="MQLqIH8n6D9SwZsYi_pO-20" value="" style="endArrow=classic;html=1;rounded=0;exitX=1;exitY=0.25;exitDx=0;exitDy=0;entryX=1;entryY=0.333;entryDx=0;entryDy=0;noEdgeStyle=1;orthogonal=1;strokeColor=#E07A5F;sketch=1;curveFitting=1;jiggle=2;fontFamily=Verdana;fontSize=22;labelBackgroundColor=none;labelBorderColor=none;entryPerimeter=0;verticalAlign=middle;align=center;" edge="1" parent="1" source="MQLqIH8n6D9SwZsYi_pO-11" target="MQLqIH8n6D9SwZsYi_pO-17">
          <mxGeometry width="50" height="50" relative="1" as="geometry">
            <mxPoint x="638" y="410" as="sourcePoint" />
            <mxPoint x="578" y="220" as="targetPoint" />
          </mxGeometry>
        </mxCell>
        <mxCell id="MQLqIH8n6D9SwZsYi_pO-23" value="" style="endArrow=classic;html=1;rounded=0;exitX=1;exitY=0.75;exitDx=0;exitDy=0;entryX=1.023;entryY=0.922;entryDx=0;entryDy=0;noEdgeStyle=1;orthogonal=1;strokeColor=#E07A5F;sketch=1;curveFitting=1;jiggle=2;fontFamily=Verdana;fontSize=22;labelBackgroundColor=none;labelBorderColor=none;entryPerimeter=0;verticalAlign=middle;align=center;" edge="1" parent="1" source="MQLqIH8n6D9SwZsYi_pO-11" target="MQLqIH8n6D9SwZsYi_pO-15">
          <mxGeometry width="50" height="50" relative="1" as="geometry">
            <mxPoint x="1054.5" y="688" as="sourcePoint" />
            <mxPoint x="954.5" y="678" as="targetPoint" />
          </mxGeometry>
        </mxCell>
        <mxCell id="quHLsW-z8Z7xskG_GIhH-11" value="" style="endArrow=classic;html=1;rounded=0;entryX=1.016;entryY=0.49;entryDx=0;entryDy=0;entryPerimeter=0;exitX=-0.031;exitY=0.536;exitDx=0;exitDy=0;exitPerimeter=0;labelBackgroundColor=none;fontSize=22;fontFamily=Verdana;strokeColor=#E07A5F;sketch=1;curveFitting=1;jiggle=2;labelBorderColor=none;" edge="1" parent="1" source="DdKTCpdjgui7AcP8N71k-1" target="MQLqIH8n6D9SwZsYi_pO-8">
          <mxGeometry width="50" height="50" relative="1" as="geometry">
            <mxPoint x="370" y="670" as="sourcePoint" />
            <mxPoint x="540" y="700" as="targetPoint" />
          </mxGeometry>
        </mxCell>
        <mxCell id="quHLsW-z8Z7xskG_GIhH-30" value="Model Diagonistics" style="html=1;shadow=1;fillColor=#F2CC8F;strokeColor=#E07A5F;sketch=1;curveFitting=1;jiggle=2;flipH=1;fontFamily=Verdana;fontSize=22;labelBackgroundColor=none;labelBorderColor=none;whiteSpace=wrap;verticalAlign=middle;align=center;" vertex="1" parent="1">
          <mxGeometry x="1660" y="590" width="188.5" height="150" as="geometry" />
        </mxCell>
        <mxCell id="quHLsW-z8Z7xskG_GIhH-32" value="" style="endArrow=classic;html=1;rounded=0;exitX=1;exitY=0.25;exitDx=0;exitDy=0;noEdgeStyle=1;orthogonal=1;strokeColor=#E07A5F;sketch=1;curveFitting=1;jiggle=2;fontFamily=Verdana;fontSize=22;labelBackgroundColor=none;labelBorderColor=none;verticalAlign=middle;align=center;" edge="1" parent="1" target="quHLsW-z8Z7xskG_GIhH-30">
          <mxGeometry width="50" height="50" relative="1" as="geometry">
            <mxPoint x="1565" y="477" as="sourcePoint" />
            <mxPoint x="1706" y="360" as="targetPoint" />
          </mxGeometry>
        </mxCell>
        <mxCell id="quHLsW-z8Z7xskG_GIhH-33" value="" style="endArrow=classic;html=1;rounded=0;noEdgeStyle=1;orthogonal=1;strokeColor=#E07A5F;sketch=1;curveFitting=1;jiggle=2;fontFamily=Verdana;fontSize=22;labelBackgroundColor=none;labelBorderColor=none;verticalAlign=middle;align=center;entryX=1.022;entryY=0.367;entryDx=0;entryDy=0;entryPerimeter=0;" edge="1" parent="1" target="MQLqIH8n6D9SwZsYi_pO-12">
          <mxGeometry width="50" height="50" relative="1" as="geometry">
            <mxPoint x="1202" y="269" as="sourcePoint" />
            <mxPoint x="1331.5" y="269.14" as="targetPoint" />
          </mxGeometry>
        </mxCell>
      </root>
    </mxGraphModel>
  </diagram>
</mxfile>
